<svg xmlns="http://www.w3.org/2000/svg" enable-background="new 0 0 93 93" viewBox="0 0 93 93" id="system-error">
  <path fill="#EAE6FC" d="M23.33144,41.53289c-0.19294-2.87761-1.53299-5.53427-2.80747-8.12146s-2.53485-5.30263-2.54867-8.18666
			c-0.02372-4.95237,3.74985-9.29066,8.21872-11.42507s9.549-2.49904,14.49255-2.79532
			c5.16797-0.30973,10.50249-0.56024,15.37179,1.19869c2.8065,1.01378,5.34255,2.65979,7.72041,4.46256
			c6.63515,5.03044,12.24561,11.40656,16.39095,18.62783c2.87959,5.01632,5.09152,10.62404,4.93597,16.40602
			s-3.07661,11.73589-8.26726,14.28788c-5.34566,2.62822-11.75266,1.26322-17.58535,2.47289
			c-6.57726,1.36408-11.96917,5.8717-17.39081,9.83742s-11.71728,7.66585-18.40151,7.00086
			c-4.4635-0.44405-8.49083-2.79687-12.23071-5.27342c-3.32858-2.20419-6.85251-5.02322-7.29716-8.99062
			c-0.28998-2.58735,0.82868-5.11835,2.12051-7.3788c2.52529-4.41874,5.8293-8.39002,9.70503-11.68776
			C19.27377,48.97685,23.68987,46.87879,23.33144,41.53289z"></path>
  <path fill="#1E1E1E" d="M91.5 85.87666h-8.77441c-.27637 0-.5-.22363-.5-.5s.22363-.5.5-.5H91.5c.27637 0 .5.22363.5.5S91.77637 85.87666 91.5 85.87666zM10.27441 85.87666H1.5c-.27637 0-.5-.22363-.5-.5s.22363-.5.5-.5h8.77441c.27637 0 .5.22363.5.5S10.55078 85.87666 10.27441 85.87666z"></path>
  <path fill="#D3DCE3" d="M19.8864,43.2694v39.5788h53.22431V43.2694c0-1.12345-0.89543-2.03418-2-2.03418H21.8864
					C20.78183,41.23522,19.8864,42.14595,19.8864,43.2694z"></path>
  <rect width="48.225" height="33.981" x="22.386" y="43.735" fill="#FFF"></rect>
  <path fill="#FFF" d="M78.49963,80.31995v1.44478c0,1.9864-1.60746,3.61172-3.61172,3.61172H18.11135
					c-2.00426,0-3.61172-1.62532-3.61172-3.61172v-1.44478h23.46949c0.55228,0,1,0.44772,1,1v0.52825c0,0.55228,0.44772,1,1,1
					h13.06103c0.55228,0,1-0.44772,1-1v-0.52825c0-0.55228,0.44772-1,1-1H78.49963z"></path>
  <polygon fill="#FFD200" points="54.005 28.235 38.994 28.235 31.488 41.235 38.994 54.235 54.005 54.235 61.511 41.235"></polygon>
  <path fill="#231F20" d="M79.14966,84.87678h-1.6001c0.88013-0.75,1.44995-1.85999,1.44995-3.10999v-1.45001
					c0-0.26996-0.21973-0.5-0.5-0.5h-4.88989V43.2668c0-1.40002-1.11987-2.52997-2.5-2.52997h-9.31006l-7.35986-12.75
					c-0.09009-0.16003-0.26001-0.25-0.42993-0.25H38.98975c-0.17017,0-0.34009,0.08997-0.43018,0.25l-7.35986,12.75h-9.31006
					c-1.37988,0-2.5,1.12994-2.5,2.52997v36.54998h-4.89014c-0.27979,0-0.5,0.23004-0.5,0.5v1.45001
					c0,1.25,0.57007,2.35999,1.46021,3.10999h-1.61011c-0.28003,0-0.5,0.22003-0.5,0.5c0,0.28003,0.21997,0.5,0.5,0.5h65.30005
					c0.28003,0,0.5-0.21997,0.5-0.5C79.64966,85.09681,79.42969,84.87678,79.14966,84.87678z M39.27979,28.73683h14.43994
					c0.72458,1.25621-2.64946-4.59341,7.20996,12.5c-1.60725,2.79546-0.24619,0.43417-7.20996,12.5H39.27979
					c-0.05943-0.10305-5.40765-9.375-7.21021-12.5C41.93047,24.14146,38.5546,29.99406,39.27979,28.73683z M60.34961,44.23683
					h9.76001V77.2168H22.88965V44.23683h9.76001l5.90991,10.25c0.09009,0.14996,0.26001,0.25,0.43018,0.25h15.02002
					c0.16992,0,0.33984-0.10004,0.42993-0.25L60.34961,44.23683z M20.38965,43.2668c0-0.83997,0.66992-1.52997,1.5-1.52997h9.31006
					l0.86987,1.5h-9.67993c-0.28003,0-0.5,0.21997-0.5,0.5V77.7168c0,0.27997,0.21997,0.5,0.5,0.5h48.21997
					c0.28003,0,0.5-0.22003,0.5-0.5V43.73683c0-0.28003-0.21997-0.5-0.5-0.5h-9.67993l0.86987-1.5h9.31006
					c0.83008,0,1.5,0.69,1.5,1.52997v36.54998H55.02979c-0.83008,0-1.5,0.67999-1.5,1.5v0.53003c0,0.27997-0.22021,0.5-0.5,0.5
					H39.96973c-0.28003,0-0.5-0.22003-0.5-0.5v-0.53003c0-0.82001-0.67017-1.5-1.5-1.5H20.38965V43.2668z M74.88965,84.87678
					H18.10962c-1.70996,0-3.11011-1.39996-3.11011-3.10999v-0.95001h22.97021c0.27002,0,0.5,0.23004,0.5,0.5v0.53003
					c0,0.17999,0.02979,0.33997,0.08984,0.5c0.2002,0.58002,0.76001,1,1.41016,1h13.06006c0.6499,0,1.20996-0.41998,1.40991-1
					c0.05981-0.16003,0.09009-0.32001,0.09009-0.5v-0.53003c0-0.26996,0.22998-0.5,0.5-0.5h22.96973v0.95001
					C77.99951,83.47681,76.59961,84.87678,74.88965,84.87678z"></path>
  <path fill="#231F20" d="M49.4655,34.4972c0,1.22594-1.65092,7.23672-2.49111,10.20259
						c-0.13854,0.47458-0.81074,0.47458-0.94928,0c-0.84019-2.96587-2.49135-8.97665-2.49135-10.20259
						c0-1.63119,1.32484-2.96587,2.96587-2.96587C48.1409,31.53133,49.4655,32.866,49.4655,34.4972z"></path>
  <circle cx="46.499" cy="48.962" r="1.977" fill="#231F20"></circle>
  <g>
    <path fill="#231F20" d="M37.75977,66.74677c-0.19336,0-0.37793-0.11328-0.45996-0.30322
						c-0.1084-0.25342,0.00879-0.54736,0.2627-0.65625c1.30566-0.55957,2.72363-0.98438,4.21582-1.26221
						c3.04395-0.58007,6.39941-0.58056,9.44531,0.00049c1.24707,0.23682,2.43848,0.56787,3.54199,0.9834
						c0.25879,0.09717,0.38965,0.38525,0.29199,0.64404c-0.09668,0.2583-0.3877,0.3877-0.64355,0.2915
						c-1.05078-0.39502-2.18652-0.70996-3.37793-0.93652c-2.92676-0.55859-6.14941-0.55762-9.07227,0
						c-1.42188,0.26465-2.76953,0.66797-4.00684,1.19824C37.89258,66.73408,37.82617,66.74677,37.75977,66.74677z"></path>
    <path fill="#FF2E57" d="M51.13398,65.01521v4.93853c0,2.55903-2.07522,4.63429-4.63444,4.63429
						c-2.55884,0-4.63425-2.07526-4.63425-4.63429v-4.93853C44.86127,64.44564,48.138,64.44564,51.13398,65.01521z"></path>
    <path fill="#231F20" d="M46.5,75.08808c-2.83105,0-5.13477-2.30322-5.13477-5.13428v-4.93848
						c0-0.24023,0.1709-0.44629,0.40625-0.49121c3.04395-0.5791,6.41016-0.5791,9.45605,0
						c0.23535,0.04492,0.40625,0.25098,0.40625,0.49121v4.93848C51.63379,72.78486,49.33105,75.08808,46.5,75.08808z
						 M42.36523,65.43281v4.521c0,2.27979,1.85449,4.13428,4.13477,4.13428c2.2793,0,4.13379-1.85449,4.13379-4.13428v-4.521
						C47.96094,64.97431,45.03613,64.97529,42.36523,65.43281z"></path>
  </g>
  <g>
    <rect width="5.573" height="1" x="59.927" y="59.552" fill="#231F20"></rect>
    <rect width="5.573" height="1" x="50.871" y="59.552" fill="#231F20"></rect>
    <rect width="7.662" height="1" x="39.029" y="59.552" fill="#231F20"></rect>
    <rect width="6.812" height="1" x="27.5" y="59.552" fill="#231F20"></rect>
  </g>
  <rect width="9.565" height="1" x="55.935" y="71.185" fill="#231F20"></rect>
  <g>
    <rect width="4.805" height="1" x="60.695" y="65.369" fill="#231F20"></rect>
    <rect width="6.178" height="1" x="27.5" y="65.369" fill="#231F20"></rect>
    <rect width="9.767" height="1" x="27.5" y="71.185" fill="#231F20"></rect>
  </g>
  <g>
    <path fill="#FF2E57" d="M25.00098,24.76582c-0.1377,0-0.25-0.11182-0.25-0.25c0-1.58008,1.28516-2.86523,2.86523-2.86523
						c0.1377,0,0.25,0.11182,0.25,0.25s-0.1123,0.25-0.25,0.25c-1.30371,0-2.36523,1.06104-2.36523,2.36523
						C25.25098,24.654,25.13867,24.76582,25.00098,24.76582z"></path>
    <path fill="#FF2E57" d="M25.00098,24.76582c-0.1377,0-0.25-0.11182-0.25-0.25c0-1.3042-1.06055-2.36523-2.36426-2.36523
						c-0.1377,0-0.25-0.11182-0.25-0.25s0.1123-0.25,0.25-0.25c1.5791,0,2.86426,1.28516,2.86426,2.86523
						C25.25098,24.654,25.13867,24.76582,25.00098,24.76582z"></path>
    <g>
      <path fill="#FF2E57" d="M22.38672,22.15059c-0.1377,0-0.25-0.11182-0.25-0.25s0.1123-0.25,0.25-0.25
						c1.30371,0,2.36426-1.06104,2.36426-2.36523c0-0.13818,0.1123-0.25,0.25-0.25s0.25,0.11182,0.25,0.25
						C25.25098,20.86543,23.96582,22.15059,22.38672,22.15059z"></path>
      <path fill="#FF2E57" d="M27.61621,22.15059c-1.58008,0-2.86523-1.28516-2.86523-2.86523c0-0.13818,0.1123-0.25,0.25-0.25
						s0.25,0.11182,0.25,0.25c0,1.3042,1.06152,2.36523,2.36523,2.36523c0.1377,0,0.25,0.11182,0.25,0.25
						S27.75391,22.15059,27.61621,22.15059z"></path>
    </g>
  </g>
  <path fill="#00CE4A" d="M70.72949,30.20527c-1.30371,0-2.36523-1.06104-2.36523-2.36523c0-0.13818-0.1123-0.25-0.25-0.25
		s-0.25,0.11182-0.25,0.25c0,1.3042-1.06055,2.36523-2.36426,2.36523c-0.1377,0-0.25,0.11182-0.25,0.25s0.1123,0.25,0.25,0.25
		c1.30371,0,2.36426,1.06104,2.36426,2.36523c0,0.13818,0.1123,0.25,0.25,0.25s0.25-0.11182,0.25-0.25
		c0-1.3042,1.06152-2.36523,2.36523-2.36523c0.1377,0,0.25-0.11182,0.25-0.25S70.86719,30.20527,70.72949,30.20527z
		 M68.11426,31.91108c-0.28833-0.64758-0.80811-1.16748-1.45557-1.45581c0.64746-0.28833,1.16724-0.80829,1.45557-1.45587
		c0.28833,0.64758,0.80835,1.16754,1.45581,1.45587C68.92261,30.7436,68.40259,31.2635,68.11426,31.91108z"></path>
  <path fill="#2E1C66" d="M49.30664,9.73848c-1.30371,0-2.36523-1.06104-2.36523-2.36523c0-0.13818-0.1123-0.25-0.25-0.25
		s-0.25,0.11182-0.25,0.25c0,1.3042-1.06055,2.36523-2.36426,2.36523c-0.1377,0-0.25,0.11182-0.25,0.25s0.1123,0.25,0.25,0.25
		c1.30371,0,2.36426,1.06104,2.36426,2.36523c0,0.13818,0.1123,0.25,0.25,0.25s0.25-0.11182,0.25-0.25
		c0-1.3042,1.06152-2.36523,2.36523-2.36523c0.1377,0,0.25-0.11182,0.25-0.25S49.44434,9.73848,49.30664,9.73848z
		 M46.69141,11.44429c-0.28833-0.64758-0.80811-1.16748-1.45557-1.45581c0.64746-0.28833,1.16724-0.80829,1.45557-1.45587
		c0.28833,0.64758,0.80835,1.16754,1.45581,1.45587C47.49976,10.27681,46.97974,10.7967,46.69141,11.44429z"></path>
</svg>
